<svg width="152" height="377" xmlns="http://www.w3.org/2000/svg" xmlns:xlink="http://www.w3.org/1999/xlink">
  <defs>
    <linearGradient x1="63.86%" y1="-36.397%" x2="23.789%" y2="100%" id="a">
      <stop stop-color="#76E1FF" offset="0%"/>
      <stop stop-color="#637BFF" stop-opacity="0" offset="100%"/>
    </linearGradient>
    <linearGradient x1="50%" y1="0%" x2="50%" y2="97.483%" id="d">
      <stop stop-color="#21C8F6" offset="0%"/>
      <stop stop-color="#637BFF" offset="100%"/>
    </linearGradient>
    <circle id="c" cx="8" cy="8" r="8"/>
    <filter x="-43.8%" y="-31.2%" width="187.5%" height="187.5%" filterUnits="objectBoundingBox" id="b">
      <feOffset dy="2" in="SourceAlpha" result="shadowOffsetOuter1"/>
      <feGaussianBlur stdDeviation="2" in="shadowOffsetOuter1" result="shadowBlurOuter1"/>
      <feColorMatrix values="0 0 0 0 0.666666667 0 0 0 0 0.639215686 0 0 0 0 0.639215686 0 0 0 0.3 0" in="shadowBlurOuter1"/>
    </filter>
    <circle id="f" cx="9.5" cy="9.5" r="9.5"/>
    <filter x="-36.8%" y="-26.3%" width="173.7%" height="173.7%" filterUnits="objectBoundingBox" id="e">
      <feOffset dy="2" in="SourceAlpha" result="shadowOffsetOuter1"/>
      <feGaussianBlur stdDeviation="2" in="shadowOffsetOuter1" result="shadowBlurOuter1"/>
      <feColorMatrix values="0 0 0 0 0.666666667 0 0 0 0 0.639215686 0 0 0 0 0.639215686 0 0 0 0.3 0" in="shadowBlurOuter1"/>
    </filter>
    <ellipse id="h" cx="5.657" cy="5.668" rx="5.657" ry="5.668"/>
    <filter x="-61.9%" y="-44.1%" width="223.7%" height="223.5%" filterUnits="objectBoundingBox" id="g">
      <feOffset dy="2" in="SourceAlpha" result="shadowOffsetOuter1"/>
      <feGaussianBlur stdDeviation="2" in="shadowOffsetOuter1" result="shadowBlurOuter1"/>
      <feColorMatrix values="0 0 0 0 0.666666667 0 0 0 0 0.639215686 0 0 0 0 0.639215686 0 0 0 0.3 0" in="shadowBlurOuter1"/>
    </filter>
  </defs>
  <g fill="none" fill-rule="evenodd">
    <path stroke="url(#a)" stroke-width="4" d="M136.953 67.879L83.815 6.558 4.976 60.18l49.446 322.588" transform="rotate(8 77.655 82.973)"/>
    <g transform="rotate(8 39.155 633.548)">
      <use fill="#000" filter="url(#b)" xlink:href="#c"/>
      <use fill="url(#d)" xlink:href="#c"/>
    </g>
    <path d="M89.605 13.992a7.222 7.222 0 1 1 11.42-8.606 7.222 7.222 0 0 0-11.42 8.606z" fill-opacity=".2" fill="#FFF"/>
    <g transform="rotate(8 -397.24 965.89)">
      <use fill="#000" filter="url(#e)" xlink:href="#f"/>
      <use fill="url(#d)" xlink:href="#f"/>
    </g>
    <path d="M131.877 81.316a9.047 9.047 0 1 1 14.307-10.78 9.047 9.047 0 0 0-14.307 10.78z" fill-opacity=".2" fill="#FFF"/>
    <g>
      <g transform="rotate(8 -315.256 55.498)">
        <use fill="#000" filter="url(#g)" xlink:href="#h"/>
        <use fill="url(#d)" xlink:href="#h"/>
      </g>
      <path d="M5.385 53.676a5.034 5.034 0 0 1-1.43-4.271 5.033 5.033 0 0 1 5.68-4.29 5.017 5.017 0 0 1 3.703 2.555 5 5 0 0 0-2.847-1.417 5.033 5.033 0 0 0-5.68 4.29 5.023 5.023 0 0 0 .574 3.133z" fill-opacity=".2" fill="#FFF"/>
    </g>
  </g>
</svg>