<svg xmlns="http://www.w3.org/2000/svg" width="744" height="599" viewBox="0 0 744 599">
    <g fill="none" fill-rule="nonzero" opacity=".03">
        <path fill="#FFF" d="M234.46 649.81V440.97h75.772v87.445l376.083-182.696c9.24-4.158 18.13-9.06 26.584-14.659a97.25 97.25 0 0 0-8.588-5.584L310.17 124.124v126.472h-75.773V0l506.097 258.528c18.627 10.28 61.438 38.646 56.829 79.005-4.294 38.646-51.652 65.171-80.003 77.673L234.333 650l.127-.19z"/>
        <path fill="#FFF" d="M426.061 411.667h-275c-13.84 0-25.061-9.7-25.061-21.667 0-11.966 11.22-21.667 25.061-21.667H425.94c13.84 0 25.061 9.7 25.061 21.667 0 11.966-11.22 21.667-25.061 21.667h.122zM533.287 325H260.38c-14.384 0-26.046-9.7-26.046-21.667 0-11.966 11.662-21.666 26.046-21.666h272.908c14.385 0 26.046 9.7 26.046 21.666 0 11.967-11.66 21.667-26.046 21.667z"/>
        <path fill="#00CECF" d="M76.775 415H25.892C11.96 415 .667 403.36.667 389s11.293-26 25.225-26h50.883C90.706 363 102 374.64 102 389s-11.294 26-25.225 26zM173.108 336h-50.883C108.294 336 97 324.36 97 310s11.294-26 25.225-26h50.883c13.932 0 25.225 11.64 25.225 26s-11.293 26-25.225 26z"/>
        <path fill="#FFF" d="M227.792 649.81V440.97h74.965v87.445l372.078-182.696a184.992 184.992 0 0 0 26.3-14.659 96.11 96.11 0 0 0-8.496-5.584L302.694 124.124v126.472H227.73V0l500.706 258.528c18.429 10.28 60.784 38.646 56.224 79.005-4.248 38.646-51.101 65.171-79.151 77.673L227.667 650l.125-.19z"/>
        <path fill="#FFF" d="M430.396 416H151.729c-14.026 0-25.396-11.64-25.396-26s11.37-26 25.396-26H430.27c14.026 0 25.396 11.64 25.396 26s-11.37 26-25.396 26h.125zM530.607 338H254.06c-14.577 0-26.393-11.64-26.393-26s11.816-26 26.393-26h276.547C545.183 286 557 297.64 557 312s-11.817 26-26.393 26z"/>
    </g>
</svg>